<?xml version="1.0" encoding="UTF-8" standalone="no"?>
<!DOCTYPE svg PUBLIC "-//W3C//DTD SVG 1.1//EN" "http://www.w3.org/Graphics/SVG/1.1/DTD/svg11.dtd">
<svg xmlns="http://www.w3.org/2000/svg" version="1.1" viewBox="0.00 0.00 1536.00 1024.00">
<path fill="#6b5238" fill-opacity="0.992" d="
  M 635.66 446.44
  A 0.30 0.29 -8.1 0 0 635.20 446.10
  Q 631.49 449.17 624.12 454.41
  Q 620.24 457.16 616.29 459.36
  C 612.76 461.32 606.31 465.57 600.25 467.08
  Q 598.72 467.46 598.30 468.06
  Q 597.81 468.77 597.08 468.46
  Q 596.77 468.33 595.58 468.54
  Q 587.17 470.05 581.48 467.56
  Q 578.31 466.18 577.59 461.52
  A 2.70 2.61 -40.5 0 1 577.71 460.24
  Q 579.47 455.26 580.13 454.09
  Q 581.66 451.37 585.27 446.30
  Q 586.69 444.30 592.61 439.26
  Q 598.36 434.36 600.04 432.36
  Q 600.39 431.94 607.94 424.96
  Q 610.89 422.25 613.79 417.51
  A 0.46 0.46 0.0 0 0 613.50 416.82
  Q 610.92 416.29 607.40 418.41
  C 604.79 419.98 600.71 421.92 598.09 423.83
  Q 589.90 429.77 584.80 434.16
  C 579.55 438.67 574.05 442.21 569.12 445.75
  Q 566.14 447.87 563.73 448.95
  C 561.24 450.06 559.12 451.67 556.43 452.99
  Q 553.09 454.64 545.47 456.21
  Q 540.31 457.27 538.16 456.36
  A 1.32 1.26 48.5 0 0 537.35 456.29
  Q 536.53 456.47 532.60 456.06
  Q 529.44 455.72 527.35 453.49
  A 1.03 1.03 0.0 0 0 525.76 453.60
  Q 518.98 463.08 509.17 467.02
  Q 503.41 469.33 499.39 468.83
  C 488.16 467.46 485.62 456.72 487.95 447.36
  A 0.39 0.39 0.0 0 0 487.28 447.01
  C 485.08 449.47 482.27 451.63 479.22 453.16
  Q 466.36 459.57 463.22 460.95
  Q 461.83 461.56 453.56 464.24
  Q 448.91 465.75 443.61 466.26
  Q 434.17 467.18 427.75 467.22
  Q 425.31 467.23 422.52 467.44
  Q 418.31 467.75 410.90 466.60
  Q 409.72 466.41 408.09 466.28
  Q 406.54 466.15 405.46 465.46
  A 1.50 1.50 0.0 0 0 403.32 466.04
  Q 376.11 519.23 375.88 519.67
  Q 374.97 521.36 373.62 524.30
  Q 372.21 527.34 367.92 535.15
  Q 360.06 549.44 346.55 576.77
  Q 345.87 578.15 343.77 579.33
  A 1.78 1.75 -89.1 0 0 343.08 580.01
  C 341.46 582.86 337.69 582.28 335.70 580.70
  A 2.80 2.32 -63.7 0 1 335.02 577.86
  Q 336.18 574.24 337.37 572.13
  C 345.18 558.35 355.77 537.57 363.86 522.96
  Q 372.58 507.22 376.87 498.40
  C 380.40 491.14 384.21 484.95 387.55 478.16
  Q 392.50 468.09 398.96 457.18
  A 2.83 2.69 68.3 0 0 399.29 456.36
  Q 399.96 453.62 402.30 451.02
  A 0.70 0.69 -67.2 0 0 401.83 449.86
  Q 401.64 449.85 401.07 450.11
  Q 388.11 455.99 382.96 456.90
  Q 378.75 457.65 370.38 455.64
  A 1.00 0.95 64.9 0 1 370.15 455.55
  L 368.16 454.40
  A 1.32 1.32 0.0 0 0 366.51 454.68
  Q 358.66 463.77 348.72 468.21
  Q 346.42 469.25 341.38 469.59
  C 333.04 470.17 327.00 465.20 326.16 456.64
  C 326.04 455.34 326.65 453.47 326.17 452.53
  A 0.93 0.92 50.9 0 1 326.27 451.52
  C 327.41 450.09 327.05 447.24 327.82 445.26
  Q 331.71 435.28 338.90 426.69
  A 0.80 0.79 22.5 0 0 338.36 425.39
  L 328.17 424.47
  A 0.77 0.74 34.9 0 0 327.79 424.53
  Q 327.39 424.71 327.24 424.66
  Q 324.19 423.53 320.59 422.67
  A 4.20 4.20 0.0 0 0 316.49 423.92
  Q 310.25 430.76 303.12 437.11
  Q 285.23 453.05 267.49 461.75
  Q 248.81 470.91 228.76 472.76
  Q 220.46 473.53 208.68 472.99
  Q 203.08 472.74 199.36 472.03
  C 194.48 471.11 191.18 470.79 187.12 469.52
  Q 180.43 467.41 175.22 465.70
  C 173.94 465.28 171.29 463.44 169.84 464.09
  Q 157.66 469.52 148.74 471.68
  Q 136.93 474.56 121.58 474.18
  Q 118.58 474.10 109.19 472.80
  Q 99.39 471.44 92.62 465.48
  Q 89.38 462.63 88.98 457.30
  A 1.54 1.52 -26.5 0 1 89.37 456.16
  Q 94.48 450.44 98.61 448.85
  Q 105.20 446.31 109.76 446.06
  Q 112.71 445.90 114.12 445.58
  A 1.59 0.01 -12.7 0 1 115.56 445.27
  Q 131.14 444.38 139.73 446.14
  Q 151.28 448.50 163.52 453.83
  Q 164.80 454.39 166.48 454.80
  Q 168.84 455.38 171.27 454.87
  A 2.60 2.53 21.8 0 0 172.19 454.49
  Q 182.31 447.71 186.04 444.53
  C 191.20 440.15 194.91 437.43 199.34 433.16
  Q 202.02 430.57 215.94 416.69
  C 220.66 411.99 222.79 409.00 227.08 404.84
  Q 228.94 403.02 231.36 399.60
  Q 231.55 399.33 232.57 398.58
  A 4.24 4.05 -1.9 0 0 233.58 397.55
  C 236.34 393.56 240.93 388.91 243.96 384.98
  C 249.09 378.33 251.70 375.40 255.94 369.41
  Q 259.89 363.82 261.58 361.76
  A 0.51 0.50 40.2 0 0 261.51 361.05
  Q 261.49 361.04 261.44 361.00
  A 0.77 0.74 -82.5 0 1 261.13 360.58
  C 258.43 351.43 256.62 341.83 256.36 332.20
  Q 256.27 328.66 256.79 324.14
  C 257.18 320.69 256.82 317.06 257.54 313.42
  Q 260.43 298.60 263.43 290.12
  Q 266.19 282.31 271.75 272.69
  Q 280.78 257.08 294.53 247.00
  Q 303.42 240.48 317.11 236.15
  A 0.20 0.17 -49.7 0 1 317.17 236.14
  L 326.69 234.92
  A 3.52 2.84 -39.8 0 1 327.26 234.91
  Q 328.40 235.01 335.01 235.75
  C 345.11 236.87 354.59 244.06 359.93 252.31
  Q 365.95 261.62 368.05 273.19
  Q 370.24 285.29 369.78 295.75
  Q 369.60 299.92 368.46 309.60
  Q 367.59 316.95 366.09 323.31
  Q 359.94 349.38 347.86 374.19
  Q 344.34 381.44 339.48 389.38
  Q 331.85 401.85 330.44 404.19
  C 328.27 407.80 325.30 411.63 322.91 414.76
  A 1.39 1.38 -65.3 0 0 323.72 416.95
  Q 325.82 417.42 327.54 418.22
  C 330.60 419.64 334.45 419.61 337.67 420.57
  Q 340.93 421.54 341.50 421.74
  A 0.91 0.91 0.0 0 0 342.41 421.56
  Q 347.08 417.49 352.91 412.77
  C 355.38 410.77 357.11 410.02 360.38 408.12
  C 362.18 407.08 363.68 407.04 365.32 406.52
  C 368.02 405.66 370.84 406.18 371.89 409.10
  A 1.76 1.75 -22.9 0 1 371.01 411.26
  C 367.46 413.02 362.92 415.14 359.42 417.89
  Q 346.78 427.86 340.61 443.13
  Q 338.53 448.27 338.15 453.35
  Q 337.83 457.66 339.99 461.11
  A 2.62 2.49 3.0 0 0 340.65 461.81
  C 343.37 463.74 345.88 462.58 349.78 461.90
  A 3.46 3.17 -60.5 0 0 350.67 461.61
  Q 358.16 458.00 363.75 451.38
  A 0.91 0.91 0.0 0 0 363.85 450.37
  L 359.53 442.34
  A 1.67 1.50 -68.5 0 1 359.37 441.91
  L 358.15 436.51
  A 0.40 0.38 -25.4 0 1 358.31 436.09
  Q 358.96 435.64 358.47 434.94
  A 1.60 1.57 32.8 0 1 358.20 433.76
  Q 360.06 423.07 368.41 416.41
  A 1.69 1.68 24.2 0 1 369.42 416.03
  Q 371.26 415.96 372.65 415.57
  C 376.06 414.60 379.72 417.79 381.04 420.52
  Q 382.24 423.02 381.29 427.54
  C 379.53 435.90 376.29 441.27 371.86 447.92
  A 0.71 0.71 0.0 0 0 372.10 448.94
  L 375.30 450.73
  A 0.78 0.78 0.0 0 0 375.51 450.80
  L 380.91 451.72
  A 2.27 2.24 45.4 0 0 381.61 451.73
  L 388.09 450.86
  A 2.03 1.86 -56.9 0 0 388.56 450.74
  Q 394.87 448.19 402.79 445.32
  Q 403.72 444.98 405.21 443.36
  A 3.05 2.87 -13.0 0 0 405.71 442.61
  Q 408.93 435.55 413.86 427.41
  Q 420.16 416.99 422.42 412.51
  Q 425.61 406.18 430.34 398.60
  C 438.23 385.96 448.13 368.63 452.35 361.98
  Q 453.38 360.35 454.11 359.43
  Q 455.19 358.08 455.91 356.89
  Q 457.13 354.89 460.31 352.83
  Q 461.91 351.79 462.71 353.28
  A 1.02 1.01 85.5 0 0 463.23 353.73
  Q 464.13 354.08 464.01 355.01
  C 463.74 357.11 462.43 360.30 460.82 362.73
  Q 457.97 367.04 455.95 370.46
  Q 449.26 381.77 440.22 396.19
  Q 430.65 411.46 420.09 432.02
  Q 418.25 435.59 415.65 439.40
  A 0.49 0.49 0.0 0 0 416.36 440.06
  Q 419.60 437.40 431.27 428.27
  C 436.23 424.39 442.57 421.30 447.29 418.80
  C 454.29 415.08 467.43 411.93 471.35 421.59
  C 473.55 427.01 471.87 430.83 469.09 436.36
  Q 466.12 442.26 461.78 446.02
  Q 455.80 451.20 449.16 456.12
  A 3.02 2.71 13.1 0 1 448.43 456.52
  Q 446.10 457.39 445.16 458.06
  C 443.88 458.99 441.80 459.20 440.58 460.83
  A 0.66 0.65 8.6 0 0 441.33 461.84
  Q 442.19 461.53 442.58 461.68
  A 2.04 1.99 -40.6 0 0 443.71 461.75
  Q 454.72 459.31 460.35 456.82
  Q 462.43 455.90 463.54 455.78
  Q 464.99 455.63 469.22 453.44
  Q 479.03 448.38 486.41 443.40
  Q 487.93 442.37 489.26 440.99
  A 3.41 3.36 80.6 0 0 489.81 440.21
  C 491.03 437.74 491.85 435.54 493.55 433.03
  Q 496.20 429.13 498.38 425.58
  C 501.78 420.04 507.69 415.15 512.53 411.04
  Q 518.76 405.75 526.59 404.41
  Q 529.55 403.90 531.83 407.13
  A 0.88 0.86 -49.9 0 1 531.90 408.02
  Q 530.70 410.49 528.78 410.79
  Q 524.08 411.51 520.69 414.69
  C 509.69 425.00 501.56 436.47 499.12 450.93
  C 498.39 455.27 498.42 460.80 503.82 461.75
  A 0.45 0.42 46.8 0 0 503.98 461.76
  L 509.64 461.04
  A 2.81 2.66 -60.7 0 0 510.54 460.76
  Q 517.70 457.10 522.97 450.86
  A 1.35 1.34 49.2 0 0 523.08 449.27
  L 519.47 443.58
  A 1.90 1.64 24.8 0 1 519.26 443.12
  Q 516.05 432.39 521.48 422.25
  Q 521.82 421.62 526.44 417.11
  A 3.91 3.84 -77.5 0 1 527.67 416.31
  L 531.34 414.88
  A 1.82 1.59 30.5 0 1 531.98 414.76
  C 537.31 414.67 540.90 417.97 540.96 423.14
  Q 541.00 426.59 540.64 427.40
  Q 539.29 430.48 538.80 433.06
  A 3.24 2.99 64.5 0 1 538.56 433.84
  Q 535.66 440.25 531.40 445.92
  A 2.08 2.07 27.3 0 0 532.43 449.14
  L 539.59 451.42
  A 2.54 2.50 50.4 0 0 540.65 451.53
  Q 545.20 451.06 547.12 450.64
  Q 549.50 450.13 554.05 448.38
  C 560.42 445.93 565.25 443.61 570.35 439.61
  Q 573.20 437.37 576.00 435.74
  C 581.97 432.26 588.06 425.28 592.12 422.64
  Q 592.79 422.20 602.23 415.00
  Q 606.22 411.94 611.94 409.76
  A 2.88 2.75 -54.1 0 1 613.03 409.56
  L 616.91 409.61
  A 0.35 0.31 48.6 0 0 616.99 409.62
  C 624.87 411.24 623.15 418.78 619.56 423.57
  Q 614.41 430.44 604.27 439.59
  Q 602.14 441.51 601.00 443.15
  C 599.72 444.98 598.23 446.15 596.77 448.04
  C 593.39 452.41 590.35 455.82 589.80 460.74
  A 1.18 1.18 0.0 0 0 590.31 461.85
  Q 591.94 462.94 593.67 462.48
  Q 595.07 462.10 595.78 462.09
  C 602.05 462.00 609.71 458.10 615.11 454.87
  C 621.00 451.35 627.63 447.68 632.13 444.52
  Q 634.93 442.55 636.75 440.83
  Q 639.30 438.43 639.66 438.16
  C 642.56 436.07 645.68 430.66 646.91 428.16
  Q 648.62 424.70 650.54 421.33
  Q 651.68 419.35 652.24 416.91
  A 1.44 1.43 -84.8 0 1 653.59 415.78
  Q 657.11 415.66 659.31 417.65
  A 1.42 1.38 -76.2 0 1 659.75 418.40
  Q 660.91 423.36 658.58 427.35
  Q 652.01 438.59 645.57 451.84
  Q 643.65 455.81 642.68 459.92
  A 0.50 0.50 0.0 0 0 643.34 460.50
  L 650.36 457.82
  A 1.82 1.56 -67.9 0 0 650.65 457.67
  C 655.64 454.12 659.85 451.74 663.23 448.29
  C 665.37 446.11 668.35 444.46 670.70 442.02
  Q 680.07 432.29 681.88 429.87
  Q 689.02 420.32 692.55 416.39
  Q 694.28 414.47 697.13 414.33
  Q 699.56 414.21 701.19 416.93
  A 1.45 1.43 36.2 0 1 701.36 417.97
  Q 700.82 420.66 699.59 422.60
  Q 694.49 430.69 688.67 440.87
  Q 685.72 446.05 684.04 450.77
  Q 682.65 454.66 683.04 460.00
  A 1.31 1.30 -73.9 0 0 683.57 460.97
  C 686.51 463.14 690.05 461.79 694.19 460.86
  A 1.30 0.20 -8.6 0 0 694.32 460.82
  L 701.12 457.78
  Q 701.16 457.76 701.20 457.74
  C 710.08 451.79 716.01 448.50 721.80 442.53
  A 4.94 4.81 77.9 0 0 722.88 440.81
  C 724.40 436.75 725.34 433.51 727.52 430.00
  Q 730.59 425.08 731.63 423.67
  Q 740.13 412.22 752.75 406.07
  C 757.20 403.90 767.26 401.51 769.71 407.73
  A 3.31 3.27 -57.9 0 1 769.94 408.77
  C 770.36 416.03 765.25 422.61 760.41 427.44
  Q 751.54 436.30 741.11 443.85
  Q 737.74 446.29 733.96 448.07
  A 1.32 1.31 -25.2 0 0 733.33 449.81
  C 733.97 451.23 734.13 453.13 734.98 454.46
  Q 738.25 459.53 744.41 460.59
  Q 750.70 461.66 756.48 460.12
  Q 758.88 459.48 759.50 459.33
  Q 764.31 458.12 767.41 456.77
  C 773.56 454.09 781.38 447.81 785.43 445.63
  C 787.20 444.68 788.85 442.30 791.15 441.74
  A 0.75 0.75 0.0 0 1 792.04 442.67
  Q 791.64 444.08 790.29 445.56
  Q 789.61 446.31 785.14 450.35
  A 3.00 2.84 -77.5 0 1 784.46 450.81
  Q 783.47 451.30 782.95 451.71
  Q 771.55 460.66 759.78 464.78
  Q 748.99 468.57 736.60 466.17
  A 3.40 3.04 -36.8 0 0 736.03 466.12
  C 731.32 466.12 725.84 462.23 723.77 458.08
  Q 721.69 453.90 721.60 449.23
  A 0.51 0.50 -22.0 0 0 720.75 448.87
  L 716.92 452.42
  A 4.81 4.49 5.8 0 1 716.13 453.02
  Q 713.54 454.59 711.81 455.93
  C 707.83 459.04 704.00 461.27 699.50 464.00
  Q 696.19 466.01 692.22 467.00
  A 3.77 3.77 0.0 0 0 691.47 467.28
  Q 687.46 469.27 680.86 468.51
  Q 672.70 467.58 671.64 460.05
  Q 671.48 458.93 672.23 453.74
  C 672.77 450.03 675.01 445.54 676.62 442.96
  A 0.66 0.66 0.0 0 0 675.62 442.12
  L 672.60 444.83
  A 1.68 1.61 -11.7 0 0 672.16 445.47
  Q 671.63 446.88 669.41 448.92
  Q 658.66 458.76 648.11 465.08
  Q 646.49 466.05 641.24 467.69
  A 1.82 1.82 0.0 0 1 640.25 467.73
  C 638.26 467.27 635.02 467.34 632.74 465.48
  A 1.67 1.65 10.9 0 1 632.23 464.74
  C 630.82 460.69 631.46 459.16 632.21 454.27
  A 0.10 0.08 -38.0 0 1 632.22 454.23
  L 635.66 446.44
  Z
  M 268.88 349.58
  Q 269.30 349.29 269.56 348.86
  Q 272.99 343.25 283.42 323.91
  C 284.65 321.64 286.00 319.84 287.42 317.73
  Q 288.41 316.26 290.13 312.95
  Q 291.85 309.64 295.00 306.19
  Q 296.44 304.61 299.93 305.45
  Q 301.38 305.80 301.82 306.32
  Q 303.97 308.84 302.74 312.08
  A 2.10 2.00 74.6 0 1 302.51 312.51
  L 272.45 358.46
  A 3.18 3.18 0.0 0 0 272.14 361.32
  Q 274.48 367.48 279.05 377.97
  C 280.26 380.74 282.71 384.01 284.75 387.37
  Q 294.97 404.12 311.94 413.83
  A 2.44 2.43 31.3 0 0 315.20 413.04
  Q 317.84 408.91 321.70 404.74
  A 8.06 7.80 83.3 0 0 322.61 403.55
  Q 328.34 394.44 334.52 384.24
  Q 335.52 382.59 336.96 379.39
  C 338.72 375.47 341.14 371.52 343.06 367.13
  Q 349.11 353.28 350.83 348.37
  Q 356.19 333.07 359.91 315.48
  C 361.50 307.96 362.24 300.40 362.60 292.26
  Q 363.03 282.55 361.50 275.21
  Q 360.91 272.39 360.81 271.04
  A 2.28 2.06 35.8 0 0 360.68 270.43
  Q 357.59 261.49 356.93 260.03
  Q 352.37 249.89 342.60 244.20
  Q 336.72 240.78 331.27 240.86
  Q 324.67 240.96 324.12 240.94
  Q 320.79 240.82 317.02 241.91
  Q 308.86 244.27 301.45 249.11
  A 0.80 0.24 -16.8 0 0 301.36 249.17
  L 294.24 255.33
  A 2.20 1.41 -49.4 0 0 294.03 255.56
  Q 287.31 264.02 286.67 264.91
  Q 280.18 273.96 276.26 283.22
  Q 274.32 287.79 270.94 297.71
  C 270.01 300.44 269.71 303.15 268.96 306.27
  C 267.45 312.46 267.43 316.46 266.48 325.34
  A 2.09 2.08 -49.2 0 0 266.53 326.07
  Q 266.75 326.93 266.60 327.87
  Q 266.01 331.78 266.52 335.12
  A 1.58 1.56 -35.9 0 1 266.36 336.09
  C 265.88 337.04 266.51 337.86 266.59 338.70
  Q 267.10 344.51 267.77 349.11
  A 0.71 0.71 0.0 0 0 268.88 349.58
  Z
  M 309.97 420.20
  A 0.44 0.44 0.0 0 0 309.75 419.51
  Q 307.39 418.76 305.93 417.59
  A 3.19 3.17 67.4 0 0 304.27 416.90
  Q 302.92 416.76 301.82 416.17
  C 293.19 411.55 286.27 404.49 279.69 397.37
  Q 277.65 395.17 276.18 392.86
  C 273.59 388.82 271.46 386.18 269.59 382.12
  C 268.09 378.87 266.39 375.61 265.55 372.02
  A 1.15 1.14 -28.2 0 0 263.65 371.45
  C 261.60 373.37 259.72 376.48 257.40 379.21
  Q 255.11 381.92 252.34 385.48
  Q 243.08 397.42 236.96 404.22
  Q 227.57 414.67 214.52 427.95
  C 210.94 431.59 207.02 434.95 203.98 437.65
  C 200.52 440.73 195.43 445.74 190.49 449.50
  Q 180.31 457.24 179.82 457.66
  A 1.15 1.13 23.3 0 1 179.15 457.92
  Q 178.35 457.96 178.21 458.14
  A 0.65 0.65 0.0 0 0 178.31 459.05
  Q 181.28 461.43 185.88 462.06
  A 3.23 3.14 59.9 0 1 186.73 462.30
  Q 188.12 462.90 190.75 463.37
  Q 192.62 463.70 195.27 464.39
  Q 204.63 466.82 205.83 466.85
  Q 206.47 466.86 221.24 467.85
  Q 222.36 467.92 224.02 467.48
  A 5.16 4.84 -50.9 0 1 225.19 467.32
  Q 235.38 467.28 244.30 464.51
  C 249.17 463.00 252.97 462.10 256.72 460.45
  Q 262.19 458.05 271.01 453.57
  Q 275.94 451.06 280.75 447.46
  Q 288.61 441.57 289.92 440.41
  C 296.29 434.79 304.00 427.85 309.97 420.20
  Z
  M 732.77 443.67
  Q 749.84 433.60 760.38 417.27
  A 4.54 4.46 67.7 0 0 761.00 415.75
  Q 761.26 414.55 762.27 412.88
  A 1.24 1.24 0.0 0 0 761.43 411.02
  C 759.56 410.68 758.16 410.78 756.26 411.85
  Q 740.86 420.43 734.61 437.64
  Q 733.34 441.11 732.49 443.44
  A 0.19 0.19 0.0 0 0 732.77 443.67
  Z
  M 528.55 442.09
  Q 529.08 441.68 529.68 440.68
  C 532.07 436.68 540.05 424.09 533.35 421.50
  A 1.11 1.11 0.0 0 0 532.20 421.71
  Q 529.69 424.01 528.53 427.03
  Q 526.55 432.16 526.22 437.27
  A 0.26 0.24 42.6 0 0 526.23 437.39
  L 527.20 441.62
  A 0.85 0.84 -25.7 0 0 528.55 442.09
  Z
  M 446.84 448.19
  Q 447.27 447.96 448.34 447.14
  Q 458.22 439.48 461.87 427.91
  Q 462.52 425.88 461.24 422.74
  A 0.97 0.96 -7.1 0 0 460.49 422.16
  Q 456.71 421.60 455.11 422.11
  Q 451.31 423.30 450.92 423.20
  A 0.64 0.62 34.5 0 0 450.39 423.29
  Q 449.92 423.63 445.18 425.62
  Q 441.31 427.24 438.17 428.92
  Q 434.95 430.66 431.84 433.21
  Q 419.44 443.39 414.03 449.32
  Q 409.99 453.76 408.15 457.92
  Q 407.18 460.11 409.56 460.71
  Q 414.72 462.00 419.72 461.19
  Q 426.62 460.06 429.22 458.81
  C 435.76 455.65 441.26 453.13 445.99 448.70
  A 1.50 0.16 -25.0 0 1 446.84 448.19
  Z
  M 368.74 444.02
  C 373.14 438.56 376.73 431.15 376.29 423.71
  A 1.36 1.36 0.0 0 0 374.13 422.69
  L 370.06 425.65
  A 1.03 0.97 88.2 0 0 369.77 425.98
  Q 365.12 434.65 368.20 443.93
  A 0.32 0.31 -35.0 0 0 368.74 444.02
  Z
  M 97.34 458.40
  Q 99.84 462.63 104.59 464.31
  A 5.56 5.11 -17.7 0 1 105.43 464.70
  Q 108.89 466.68 110.81 466.92
  C 114.20 467.34 116.83 468.00 119.42 468.27
  C 133.64 469.77 148.58 466.97 161.73 461.50
  A 0.74 0.74 0.0 0 0 161.59 460.09
  Q 158.30 459.46 156.83 458.92
  Q 147.84 455.57 137.52 452.97
  Q 131.07 451.35 122.26 451.06
  C 114.01 450.78 103.02 451.77 97.45 457.52
  A 0.73 0.73 0.0 0 0 97.34 458.40
  Z"
/>
<path fill="#6b5238" fill-opacity="0.992" d="
  M 988.95 448.57
  Q 988.50 448.92 982.37 452.00
  Q 974.28 456.07 965.28 454.09
  Q 963.49 453.70 962.93 452.64
  Q 962.51 451.84 961.23 451.77
  A 1.51 1.49 20.9 0 0 960.02 452.30
  C 956.70 456.24 955.04 458.74 951.85 461.31
  Q 943.89 467.72 933.77 468.39
  A 3.83 3.75 -40.8 0 1 932.82 468.33
  Q 921.26 466.01 920.84 454.00
  Q 920.72 450.29 921.57 447.68
  A 0.29 0.29 0.0 0 0 921.20 447.31
  Q 919.65 447.80 919.01 448.50
  Q 917.08 450.61 914.16 452.43
  Q 905.75 457.68 895.92 461.91
  Q 888.83 464.96 881.87 465.89
  Q 872.02 467.21 863.31 467.09
  Q 851.54 466.92 851.44 466.91
  C 847.43 466.49 843.10 466.35 840.62 464.41
  A 1.37 1.37 0.0 0 0 838.59 464.80
  Q 828.96 481.52 819.77 499.32
  C 816.76 505.15 812.70 511.51 809.83 517.31
  Q 806.27 524.52 789.24 557.48
  C 787.09 561.63 785.44 566.05 782.86 570.29
  C 780.55 574.09 780.51 577.52 775.72 580.36
  A 1.90 1.87 -60.0 0 1 774.75 580.63
  C 773.27 580.63 772.08 580.15 770.55 579.72
  C 768.75 579.22 768.71 577.87 769.43 576.28
  Q 771.01 572.81 772.14 570.63
  Q 777.12 560.96 792.76 531.23
  Q 799.65 518.12 808.80 501.56
  Q 816.19 488.19 818.91 482.85
  Q 821.89 477.01 825.31 471.27
  C 828.02 466.71 831.99 458.89 835.84 452.31
  C 839.60 445.89 841.59 441.08 844.87 435.46
  Q 849.26 427.93 850.20 426.19
  Q 862.15 404.02 870.37 389.68
  C 871.36 387.95 872.09 385.98 873.44 383.97
  Q 876.73 379.03 879.82 372.99
  C 881.65 369.43 884.43 365.01 886.78 361.03
  Q 887.65 359.56 891.52 354.81
  C 893.59 352.27 895.95 351.73 898.29 354.18
  A 1.83 1.83 0.0 0 1 898.63 356.21
  Q 897.87 357.87 896.97 359.25
  Q 890.81 368.74 886.38 376.37
  Q 874.60 396.67 862.46 418.94
  Q 858.43 426.34 851.76 439.21
  A 0.39 0.39 0.0 0 0 852.39 439.66
  Q 861.03 430.96 871.51 423.77
  Q 881.01 417.26 889.92 415.47
  Q 896.18 414.21 900.88 416.54
  Q 904.62 418.39 905.23 422.47
  C 905.69 425.55 906.05 428.58 904.59 431.39
  Q 899.68 440.86 895.09 445.14
  Q 893.06 447.03 888.05 451.31
  Q 882.17 456.33 874.38 459.88
  Q 873.26 460.39 872.36 461.17
  A 0.43 0.43 0.0 0 0 872.66 461.92
  Q 878.19 461.56 885.23 459.98
  C 887.54 459.47 889.45 458.14 891.90 457.89
  A 3.50 3.45 -58.4 0 0 892.83 457.66
  Q 903.35 453.49 906.33 452.07
  Q 911.21 449.75 919.28 444.04
  Q 919.53 443.87 920.27 442.77
  A 2.89 2.85 89.6 0 1 920.98 442.04
  Q 924.03 439.78 924.35 438.85
  Q 925.58 435.31 926.96 432.93
  Q 934.86 419.30 946.91 410.15
  Q 951.22 406.89 957.73 404.57
  C 960.60 403.55 962.40 403.94 964.81 405.42
  A 1.37 1.37 0.0 0 1 965.17 407.44
  L 963.76 409.22
  A 1.30 1.15 -80.5 0 1 963.39 409.52
  L 954.31 413.98
  A 3.49 3.46 6.6 0 0 953.15 414.89
  C 950.08 418.60 945.25 423.02 942.09 427.56
  Q 936.36 435.79 933.89 444.92
  Q 932.58 449.77 932.72 454.45
  Q 932.83 458.55 935.62 460.61
  A 2.18 2.18 0.0 0 0 936.72 461.04
  Q 940.62 461.43 942.46 460.69
  Q 951.07 457.23 956.82 449.50
  A 0.72 0.71 42.3 0 0 956.77 448.59
  Q 951.50 442.93 951.10 435.52
  Q 950.89 431.57 952.55 426.81
  Q 953.76 423.34 956.79 419.04
  Q 959.05 415.83 962.22 414.77
  Q 969.07 412.46 972.43 417.36
  C 976.60 423.45 972.66 431.14 969.61 436.89
  Q 968.30 439.35 966.90 441.21
  Q 964.61 444.25 964.23 444.99
  A 0.93 0.91 41.3 0 0 964.30 445.92
  Q 966.57 449.20 970.22 449.59
  Q 974.80 450.08 978.72 448.68
  Q 983.99 446.80 988.34 444.17
  C 993.89 440.82 996.36 434.41 1000.52 430.26
  Q 1005.87 424.93 1008.80 422.81
  Q 1013.13 419.66 1016.24 417.28
  A 5.92 5.83 -75.2 0 1 1017.42 416.58
  L 1028.66 411.56
  A 8.62 7.90 23.0 0 1 1029.99 411.09
  Q 1030.93 410.85 1041.68 408.64
  Q 1042.64 408.44 1044.52 408.73
  A 2.36 2.32 -51.5 0 0 1045.82 408.57
  Q 1046.63 408.22 1047.64 408.47
  C 1049.42 408.91 1050.75 408.34 1052.30 408.62
  A 0.96 0.95 -64.3 0 0 1053.20 408.30
  Q 1054.00 407.35 1056.63 403.90
  C 1058.92 400.89 1062.10 401.96 1064.47 403.87
  A 2.79 2.78 -58.7 0 1 1065.27 407.18
  Q 1064.23 409.52 1063.00 411.52
  C 1059.25 417.66 1055.39 423.74 1052.21 429.98
  Q 1049.81 434.68 1047.76 438.09
  C 1045.47 441.89 1043.43 446.03 1041.75 449.93
  Q 1040.93 451.82 1039.23 454.61
  Q 1036.97 458.31 1035.17 463.81
  A 0.82 0.82 0.0 0 0 1036.22 464.84
  C 1041.49 463.02 1044.73 460.87 1050.30 457.33
  Q 1054.62 454.58 1058.08 452.01
  Q 1072.74 441.14 1087.61 429.11
  Q 1092.48 425.17 1094.34 423.85
  C 1098.81 420.68 1101.25 418.14 1105.38 415.93
  Q 1106.94 415.09 1109.96 412.98
  A 8.28 8.25 17.4 0 1 1111.71 412.07
  Q 1114.76 410.94 1115.40 410.85
  Q 1121.69 409.99 1123.73 414.93
  Q 1124.89 417.74 1124.24 420.10
  Q 1123.88 421.38 1121.87 425.38
  Q 1119.47 430.13 1115.32 437.27
  A 1.02 1.02 0.0 0 0 1116.37 438.78
  Q 1120.42 438.10 1125.12 437.58
  Q 1130.04 437.03 1136.38 434.87
  Q 1139.46 433.83 1140.93 431.45
  C 1142.30 429.22 1145.32 425.06 1147.93 420.98
  Q 1151.44 415.49 1156.74 412.31
  Q 1158.88 411.03 1160.72 411.44
  Q 1162.48 411.84 1163.72 414.54
  A 1.35 1.31 -46.8 0 1 1163.74 415.60
  C 1162.63 418.28 1161.10 419.39 1159.40 421.62
  Q 1153.30 429.61 1148.87 438.62
  C 1148.29 439.79 1147.45 440.83 1147.08 441.79
  Q 1144.30 448.97 1143.58 451.27
  C 1142.56 454.50 1141.93 457.25 1144.62 459.66
  Q 1146.86 461.66 1149.68 460.68
  Q 1165.07 455.39 1177.11 444.60
  C 1180.17 441.86 1181.65 436.80 1183.51 432.26
  A 2.38 2.35 80.4 0 1 1184.09 431.43
  Q 1185.13 430.49 1185.94 429.19
  C 1188.52 425.01 1189.78 422.60 1192.37 419.88
  Q 1193.68 418.49 1197.74 413.68
  A 7.76 7.68 -88.0 0 1 1198.94 412.55
  Q 1200.74 411.19 1202.86 409.43
  Q 1203.90 408.55 1205.73 408.81
  A 1.33 1.32 -13.5 0 1 1206.63 409.36
  C 1209.20 413.02 1207.14 416.08 1204.40 419.21
  A 6.56 6.15 -9.5 0 0 1203.82 419.97
  Q 1201.49 423.63 1200.58 424.77
  C 1194.47 432.41 1190.73 441.48 1188.90 451.25
  Q 1188.27 454.58 1189.00 457.54
  A 3.45 3.45 0.0 0 0 1192.23 460.17
  C 1198.76 460.39 1202.89 455.99 1208.97 451.12
  A 1.23 1.23 0.0 0 0 1208.58 448.99
  Q 1206.88 448.43 1206.92 447.06
  Q 1206.96 446.09 1206.85 445.98
  Q 1206.43 445.57 1206.38 445.50
  A 1.61 1.60 24.6 0 1 1206.05 444.62
  Q 1205.77 440.47 1205.98 438.29
  C 1206.13 436.66 1206.95 435.58 1206.95 434.21
  A 2.04 2.01 59.2 0 1 1207.18 433.27
  Q 1209.87 428.15 1215.38 424.41
  A 2.04 2.01 24.4 0 1 1216.36 424.05
  Q 1219.02 423.81 1219.61 423.57
  C 1225.29 421.29 1227.36 428.94 1226.92 432.97
  A 2.76 2.71 -29.6 0 1 1226.67 433.85
  Q 1223.55 440.69 1219.49 446.71
  Q 1218.70 447.88 1218.93 449.22
  A 0.81 0.81 0.0 0 0 1220.10 449.80
  Q 1221.90 448.89 1223.58 449.10
  A 1.72 1.69 -56.8 0 0 1224.63 448.87
  C 1228.35 446.63 1231.86 445.52 1232.84 441.59
  A 2.60 2.32 68.3 0 1 1233.00 441.15
  Q 1237.90 431.43 1239.59 427.88
  Q 1241.20 424.50 1244.06 420.57
  Q 1246.33 417.45 1249.25 413.65
  A 1.33 1.30 -75.8 0 1 1250.05 413.16
  Q 1255.86 412.04 1256.65 417.69
  A 1.76 1.74 -36.7 0 1 1256.50 418.67
  Q 1255.41 420.93 1252.12 426.01
  Q 1249.53 429.99 1247.91 433.39
  Q 1243.74 442.09 1241.72 449.69
  A 3.82 3.74 55.8 0 0 1241.61 450.30
  L 1241.07 456.90
  A 0.45 0.44 16.5 0 0 1241.32 457.34
  L 1243.85 458.54
  A 1.28 1.28 0.0 0 0 1244.81 458.59
  L 1248.76 457.19
  A 1.51 1.33 -70.5 0 0 1249.10 457.00
  Q 1251.36 455.32 1253.07 454.72
  A 3.44 3.37 -74.5 0 0 1254.14 454.10
  L 1262.49 446.94
  A 1.23 1.21 -17.4 0 0 1262.92 446.13
  Q 1263.36 442.41 1264.21 440.47
  C 1267.33 433.32 1270.12 425.81 1275.33 420.34
  Q 1278.30 417.23 1280.03 415.54
  Q 1286.84 408.93 1295.91 405.44
  A 4.93 4.63 28.4 0 1 1296.97 405.16
  C 1299.17 404.86 1306.03 404.49 1307.41 407.03
  Q 1308.87 409.73 1308.76 412.25
  Q 1308.65 414.60 1307.00 417.45
  Q 1302.15 425.85 1298.57 429.63
  Q 1289.67 439.04 1277.62 447.13
  Q 1276.33 448.00 1274.71 449.38
  A 0.78 0.77 -29.4 0 0 1274.47 450.21
  C 1275.15 452.33 1274.99 455.68 1277.12 457.61
  Q 1282.24 462.25 1289.52 460.99
  Q 1297.72 459.58 1303.29 457.20
  Q 1306.22 455.94 1311.77 453.53
  Q 1315.11 452.08 1318.28 449.82
  C 1321.72 447.37 1323.84 446.14 1328.06 443.57
  Q 1329.26 442.85 1331.58 442.98
  A 0.40 0.40 0.0 0 1 1331.91 443.56
  Q 1330.93 445.49 1330.23 445.98
  Q 1322.97 451.14 1313.75 457.01
  Q 1306.02 461.93 1296.67 465.11
  Q 1285.30 468.99 1273.98 465.80
  C 1268.58 464.28 1265.88 460.67 1263.21 456.09
  A 1.24 1.16 34.0 0 1 1263.04 455.35
  L 1263.17 453.86
  A 0.52 0.52 0.0 0 0 1262.34 453.40
  Q 1254.67 459.30 1245.63 463.63
  Q 1244.81 464.02 1240.85 464.13
  A 3.28 3.13 50.1 0 1 1239.88 464.02
  Q 1230.20 461.34 1230.11 451.34
  A 0.41 0.41 0.0 0 0 1229.54 450.97
  L 1222.96 453.91
  A 2.75 2.68 34.5 0 1 1221.61 454.14
  L 1213.57 453.41
  A 0.56 0.56 0.0 0 0 1213.15 453.55
  Q 1207.90 458.16 1203.04 461.77
  Q 1197.52 465.87 1191.52 466.81
  Q 1188.19 467.34 1182.76 464.99
  A 1.92 1.90 81.2 0 1 1182.03 464.45
  Q 1176.21 457.49 1179.05 449.25
  A 0.39 0.39 0.0 0 0 1178.47 448.79
  C 1175.88 450.45 1173.86 452.78 1171.37 454.58
  Q 1164.16 459.78 1157.10 463.93
  C 1155.78 464.70 1153.87 465.12 1153.05 465.67
  A 1.48 1.43 -59.1 0 1 1152.16 465.91
  Q 1150.73 465.83 1149.10 466.60
  A 2.61 2.58 -59.4 0 1 1148.11 466.86
  Q 1143.30 467.15 1138.84 465.89
  Q 1136.80 465.32 1134.99 462.72
  Q 1133.49 460.56 1132.44 456.53
  C 1131.56 453.15 1132.75 449.29 1134.16 446.44
  C 1135.00 444.75 1135.42 442.65 1136.42 440.77
  A 0.90 0.90 0.0 0 0 1135.21 439.55
  Q 1133.77 440.28 1131.49 440.73
  Q 1120.95 442.83 1118.49 443.40
  Q 1115.88 444.01 1113.65 443.25
  A 2.20 2.19 26.6 0 0 1111.14 444.08
  Q 1106.97 450.15 1103.01 458.24
  Q 1101.18 461.99 1096.97 465.48
  A 2.75 2.71 -73.4 0 1 1096.08 465.97
  Q 1093.05 466.90 1092.52 466.92
  C 1087.88 467.16 1088.44 462.57 1089.82 459.81
  Q 1093.15 453.15 1097.78 446.41
  C 1100.48 442.48 1101.81 438.97 1104.54 435.20
  Q 1109.46 428.39 1112.65 419.75
  A 0.73 0.73 0.0 0 0 1111.59 418.87
  Q 1109.98 419.82 1106.48 421.58
  Q 1104.37 422.64 1101.59 424.60
  Q 1088.01 434.15 1079.56 441.59
  Q 1073.75 446.70 1068.01 450.33
  Q 1064.50 452.55 1053.28 460.83
  Q 1050.47 462.90 1047.23 464.53
  C 1044.35 465.98 1042.09 467.32 1038.84 469.02
  Q 1033.48 471.82 1029.56 475.88
  A 3.57 3.22 84.0 0 0 1029.00 476.65
  C 1026.21 481.82 1024.10 485.10 1021.85 489.53
  Q 999.29 533.85 993.19 545.45
  Q 989.03 553.33 983.82 562.10
  Q 976.62 574.20 967.84 583.86
  C 961.67 590.64 955.33 595.99 946.37 598.59
  C 945.03 598.98 943.18 598.96 942.17 599.02
  C 932.68 599.63 931.93 589.81 932.52 582.78
  Q 932.89 578.37 934.84 571.06
  Q 936.92 563.32 941.15 554.17
  Q 944.94 545.97 954.47 532.13
  Q 956.58 529.07 960.09 525.42
  C 962.31 523.12 964.78 519.54 967.77 516.65
  Q 977.13 507.60 983.23 502.22
  Q 986.58 499.27 1001.25 487.56
  Q 1005.51 484.16 1009.15 481.94
  Q 1013.09 479.54 1017.08 476.32
  Q 1019.98 473.99 1021.65 470.67
  Q 1025.32 463.35 1030.71 452.96
  Q 1031.57 451.29 1032.21 449.23
  Q 1032.23 449.19 1032.25 449.15
  L 1040.79 432.06
  A 1.07 1.05 -5.1 0 1 1041.14 431.65
  Q 1042.00 431.08 1042.00 430.75
  A 0.50 0.50 0.0 0 0 1041.10 430.44
  Q 1034.01 439.76 1025.44 447.14
  C 1020.81 451.14 1016.74 453.70 1011.22 456.67
  Q 1007.27 458.81 1006.50 459.43
  A 3.48 3.37 14.9 0 1 1005.55 459.96
  Q 1001.42 461.45 996.88 462.05
  Q 996.14 462.14 992.51 460.93
  A 2.78 2.70 -11.7 0 1 991.38 460.21
  Q 989.61 458.29 988.17 454.55
  A 0.59 0.55 43.4 0 1 988.15 454.19
  L 989.41 448.88
  A 0.30 0.29 78.3 0 0 988.95 448.57
  Z
  M 1273.99 444.05
  Q 1276.16 443.08 1278.26 441.26
  Q 1279.28 440.36 1284.95 435.77
  C 1288.21 433.12 1292.07 428.73 1294.36 425.90
  Q 1296.93 422.73 1301.33 415.12
  Q 1302.08 413.82 1302.06 411.50
  A 0.59 0.58 -6.5 0 0 1301.35 410.94
  L 1296.18 412.12
  A 2.44 2.41 17.3 0 0 1295.06 412.70
  Q 1292.00 415.48 1289.39 417.63
  Q 1286.17 420.30 1284.09 422.88
  Q 1276.75 432.02 1273.59 443.71
  A 0.29 0.29 0.0 0 0 1273.99 444.05
  Z
  M 1042.52 415.69
  Q 1037.13 414.47 1031.42 418.17
  Q 1030.55 418.73 1029.36 418.90
  A 1.98 1.84 -62.0 0 0 1028.64 419.15
  Q 1019.88 424.11 1018.32 425.57
  Q 1014.32 429.33 1008.14 435.03
  A 5.32 5.25 -4.1 0 0 1007.49 435.77
  Q 1004.14 440.45 1001.98 445.02
  Q 1000.27 448.64 1001.05 451.84
  A 2.33 2.33 0.0 0 0 1004.13 453.47
  L 1010.86 450.96
  A 2.24 2.18 -74.3 0 0 1011.50 450.59
  C 1014.53 448.20 1017.74 446.37 1020.50 444.03
  Q 1030.13 435.85 1038.33 427.17
  Q 1039.52 425.92 1042.16 423.30
  Q 1045.12 420.36 1048.82 414.99
  A 0.65 0.64 3.7 0 0 1047.99 414.05
  Q 1045.23 415.47 1043.69 415.04
  A 0.27 0.26 27.8 0 0 1043.41 415.12
  Q 1043.34 415.21 1043.28 415.32
  A 0.69 0.69 0.0 0 1 1042.52 415.69
  Z
  M 960.89 441.25
  A 0.40 0.40 0.0 0 0 961.59 441.23
  Q 962.74 438.97 965.72 434.75
  Q 969.86 428.90 969.05 422.12
  A 1.55 1.55 0.0 0 0 967.33 420.77
  C 962.97 421.27 960.57 428.26 960.27 431.79
  C 959.94 435.69 959.41 438.74 960.89 441.25
  Z
  M 843.92 460.00
  L 849.79 461.03
  A 0.20 0.17 49.7 0 0 849.85 461.04
  Q 856.25 461.12 860.56 459.26
  Q 864.89 457.40 868.55 455.57
  Q 879.83 449.92 888.52 439.76
  Q 890.87 437.02 893.31 431.29
  Q 895.10 427.10 894.07 422.51
  A 1.60 1.59 81.1 0 0 892.38 421.27
  C 886.46 421.79 880.79 423.68 875.55 426.83
  Q 866.61 432.23 859.60 439.21
  Q 856.75 442.04 852.50 445.87
  Q 846.32 451.43 843.00 458.18
  A 1.28 1.27 -72.0 0 0 843.92 460.00
  Z
  M 1221.59 430.60
  L 1219.35 429.59
  A 1.09 1.09 0.0 0 0 1217.90 430.13
  L 1216.32 433.64
  A 10.26 2.32 -65.7 0 0 1214.21 443.95
  A 10.26 2.32 -65.7 0 0 1220.55 435.55
  L 1222.13 432.04
  A 1.09 1.09 0.0 0 0 1221.59 430.60
  Z
  M 1015.03 483.22
  Q 1014.31 483.47 1013.44 484.18
  Q 996.60 497.96 985.53 508.27
  Q 981.35 512.17 977.99 515.74
  Q 972.97 521.06 970.94 523.69
  Q 970.18 524.66 962.85 534.30
  Q 958.31 540.28 955.45 545.37
  Q 948.20 558.31 944.31 569.53
  Q 941.90 576.49 941.07 586.95
  A 3.72 3.61 -53.6 0 0 941.29 588.55
  Q 941.99 590.38 941.93 591.66
  A 1.22 1.21 9.6 0 0 942.81 592.89
  Q 946.25 593.89 949.21 591.85
  Q 954.37 588.29 955.12 587.37
  C 958.40 583.37 962.77 578.90 966.06 574.04
  Q 972.49 564.57 977.46 557.12
  C 979.17 554.55 980.80 551.40 982.85 547.95
  C 983.72 546.47 983.96 544.90 984.88 543.60
  C 987.80 539.49 989.39 533.78 991.91 529.54
  Q 996.04 522.58 999.77 514.35
  C 1004.38 504.16 1008.37 497.06 1015.42 483.68
  A 0.33 0.32 -85.4 0 0 1015.03 483.22
  Z"
/>
<path fill="#6b5238" fill-opacity="0.992" d="
  M 1399.93 385.64
  Q 1399.67 386.20 1396.59 391.34
  Q 1394.87 394.20 1392.85 396.74
  Q 1387.32 403.70 1384.74 407.51
  Q 1380.71 413.47 1377.88 417.09
  Q 1375.16 420.56 1366.81 433.68
  C 1363.13 439.46 1358.77 445.09 1355.33 450.79
  A 4.10 4.09 18.6 0 1 1351.12 452.88
  L 1350.93 452.85
  A 2.12 2.12 0.0 0 1 1349.30 449.91
  Q 1351.74 444.21 1355.21 439.46
  C 1358.63 434.78 1363.52 427.67 1367.88 420.58
  Q 1372.65 412.80 1377.98 405.24
  Q 1380.49 401.68 1390.22 386.69
  Q 1390.41 386.40 1391.96 384.46
  C 1393.73 382.26 1396.45 379.24 1399.19 381.97
  A 3.35 3.16 35.3 0 1 1399.93 385.64
  Z"
/>
<path fill="#6b5238" fill-opacity="0.992" d="
  M 1341.29 466.79
  Q 1341.52 465.09 1343.03 462.39
  A 1.95 1.92 3.0 0 1 1344.00 461.53
  Q 1350.23 459.05 1353.44 463.92
  C 1355.47 466.98 1351.37 470.67 1348.72 471.71
  Q 1342.77 474.07 1341.33 467.82
  A 2.72 2.69 -47.5 0 1 1341.29 466.79
  Z"
/>
<path fill="#6b5238" fill-opacity="0.992" d="
  M 1043.38 664.01
  Q 1040.91 664.89 1038.60 663.93
  A 2.25 1.77 -70.3 0 1 1037.73 661.33
  C 1038.51 658.85 1038.79 656.72 1039.62 654.61
  Q 1041.05 650.97 1044.47 640.96
  Q 1051.14 621.39 1053.20 615.56
  C 1059.28 598.36 1064.87 580.27 1071.20 561.90
  Q 1073.36 555.63 1073.57 554.88
  Q 1074.72 550.90 1075.96 547.88
  Q 1078.17 542.51 1080.02 536.77
  Q 1080.52 535.22 1084.27 530.22
  A 1.57 1.57 0.0 0 1 1085.27 529.62
  Q 1089.68 528.95 1093.75 531.67
  Q 1095.05 532.53 1095.20 533.79
  Q 1095.38 535.22 1094.77 536.50
  Q 1089.06 548.48 1085.84 556.32
  Q 1073.09 587.33 1062.40 617.58
  Q 1058.28 629.26 1055.56 636.53
  Q 1054.34 639.79 1048.72 655.47
  Q 1047.07 660.08 1044.29 663.37
  A 2.10 2.03 -79.1 0 1 1043.38 664.01
  Z"
/>
<path fill="#6b5238" fill-opacity="0.992" d="
  M 586.01 683.22
  A 0.41 0.41 0.0 0 0 585.36 682.75
  Q 579.02 688.16 571.53 692.09
  C 565.68 695.17 560.64 698.76 555.30 701.47
  A 1.78 1.74 12.0 0 0 555.00 701.66
  L 551.03 704.74
  A 2.70 2.67 87.2 0 0 550.41 705.43
  Q 548.10 709.20 547.63 710.12
  Q 533.64 737.26 519.82 766.81
  Q 516.78 773.31 513.59 779.25
  C 509.02 787.77 504.47 796.52 498.73 805.50
  Q 491.58 816.68 481.77 826.51
  C 476.16 832.13 469.24 835.77 461.11 835.70
  Q 459.95 835.69 455.51 833.87
  A 2.12 1.98 -6.7 0 1 454.71 833.28
  L 452.66 830.82
  A 2.12 2.07 -68.7 0 1 452.19 829.71
  C 451.97 827.92 451.31 826.57 451.25 824.37
  Q 451.01 816.34 451.20 814.75
  Q 452.14 806.94 454.60 798.44
  Q 456.84 790.69 461.18 783.18
  Q 468.63 770.30 475.69 761.92
  C 487.30 748.15 500.97 735.74 514.88 723.88
  Q 524.29 715.86 534.35 708.97
  A 7.32 7.31 -86.2 0 0 535.67 707.81
  Q 537.32 705.98 539.53 704.35
  Q 541.19 703.13 543.16 698.53
  A 6.85 6.10 75.4 0 1 543.60 697.67
  Q 545.85 694.11 546.19 693.45
  Q 554.62 677.27 559.23 668.61
  C 559.90 667.35 560.96 666.30 561.13 664.96
  A 1.36 1.33 75.1 0 1 561.64 664.06
  Q 562.52 663.36 563.67 660.40
  A 0.28 0.28 0.0 0 0 563.23 660.08
  Q 562.49 660.68 560.81 662.84
  Q 560.47 663.27 558.65 664.89
  Q 557.44 665.96 551.45 671.21
  Q 547.89 674.32 543.67 676.76
  Q 539.09 679.42 533.03 683.53
  Q 531.11 684.83 527.09 685.94
  A 5.20 4.80 -64.4 0 0 526.01 686.37
  Q 523.16 687.92 519.21 688.60
  C 516.77 689.03 513.93 687.64 511.86 688.18
  A 1.47 1.45 -36.1 0 1 510.72 688.01
  Q 508.49 686.59 507.23 683.47
  A 1.69 1.65 34.8 0 1 507.11 682.85
  L 507.11 678.25
  A 1.23 1.20 56.8 0 1 507.20 677.79
  Q 509.57 672.04 511.74 669.23
  C 514.38 665.81 518.48 660.20 522.44 656.60
  C 534.50 645.61 551.07 635.60 567.63 634.12
  Q 567.67 634.12 567.70 634.12
  L 575.88 634.94
  A 0.18 0.17 -86.7 0 1 576.04 635.13
  Q 576.02 635.49 576.42 635.67
  Q 576.72 635.81 577.00 635.53
  C 577.77 634.75 577.62 633.65 578.35 632.89
  Q 580.95 630.19 584.36 629.66
  A 1.83 1.75 50.4 0 1 585.32 629.77
  Q 589.22 631.27 588.99 634.73
  A 2.53 2.49 60.5 0 1 588.72 635.73
  C 586.23 640.66 583.20 644.83 580.77 649.33
  Q 576.86 656.58 571.14 665.88
  Q 569.14 669.14 561.30 683.60
  C 560.51 685.06 558.89 686.80 558.71 688.45
  A 0.95 0.79 -31.7 0 1 558.60 688.78
  L 555.44 694.53
  A 0.44 0.44 0.0 0 0 555.82 695.18
  C 558.20 695.20 558.89 694.27 560.65 693.23
  Q 582.59 680.25 588.95 676.46
  Q 590.55 675.51 593.18 671.20
  Q 595.72 667.02 598.04 662.14
  Q 599.81 658.41 602.82 653.05
  Q 604.59 649.89 610.92 638.46
  Q 613.57 633.66 619.17 623.98
  Q 628.98 606.99 632.72 600.19
  Q 635.76 594.67 639.48 590.74
  Q 641.54 588.56 644.99 589.05
  A 1.44 1.43 -81.8 0 1 646.21 590.68
  L 645.91 592.70
  A 1.69 1.61 66.2 0 1 645.69 593.31
  Q 629.44 620.35 614.34 646.71
  C 611.55 651.57 609.05 657.39 605.52 662.62
  A 0.42 0.24 -29.5 0 0 605.46 662.72
  L 603.93 665.87
  A 0.40 0.40 0.0 0 0 604.54 666.36
  C 615.89 657.31 624.20 649.91 636.14 645.18
  Q 643.43 642.29 649.77 642.28
  Q 655.21 642.27 658.94 645.56
  C 660.99 647.36 661.94 652.07 661.43 654.88
  Q 659.94 662.98 655.97 667.79
  Q 646.47 679.30 633.05 686.79
  Q 632.17 687.28 632.34 688.40
  A 0.57 0.57 0.0 0 0 633.00 688.87
  Q 637.93 687.96 638.92 687.65
  Q 639.91 687.35 640.50 687.66
  A 0.60 0.55 -38.6 0 0 640.95 687.69
  Q 654.94 683.27 662.09 680.02
  Q 671.24 675.87 682.89 667.90
  Q 684.53 666.78 689.02 662.03
  Q 690.53 660.42 697.76 647.50
  A 1.77 1.74 61.0 0 0 697.97 646.75
  L 698.12 643.42
  A 0.53 0.52 3.3 0 0 697.62 642.87
  Q 694.10 642.67 690.99 644.37
  A 3.73 3.72 45.6 0 1 687.35 644.33
  L 686.62 643.91
  A 1.34 1.34 0.0 0 1 686.55 641.64
  Q 689.53 639.66 695.45 637.83
  Q 702.34 635.72 706.37 640.92
  A 2.79 2.64 -75.9 0 1 706.78 641.65
  Q 708.93 647.40 706.42 652.67
  Q 704.30 657.12 701.07 662.62
  C 696.73 669.99 694.17 675.94 691.76 683.76
  A 0.91 0.91 0.0 0 0 692.92 684.89
  Q 695.23 684.12 696.17 683.40
  C 697.72 682.21 699.56 681.89 701.21 680.72
  C 704.81 678.14 707.92 676.46 711.32 673.43
  Q 723.53 662.58 725.90 660.40
  Q 727.96 658.49 729.83 657.24
  A 2.52 2.40 -85.0 0 0 730.25 656.87
  L 743.56 641.54
  A 3.54 3.53 -66.5 0 1 746.57 640.35
  Q 749.20 640.61 750.91 642.15
  Q 752.58 643.65 752.01 645.98
  Q 751.45 648.29 749.83 650.60
  Q 744.37 658.44 740.70 664.20
  Q 737.67 668.96 735.80 673.20
  C 733.80 677.74 731.32 681.85 729.62 685.70
  Q 728.62 687.94 727.30 689.84
  Q 726.13 691.50 724.88 693.95
  A 0.19 0.19 0.0 0 0 725.13 694.20
  C 729.86 691.62 733.86 689.12 738.00 687.46
  C 740.71 686.37 742.74 684.45 745.00 683.18
  Q 754.96 677.55 765.35 670.10
  Q 767.37 668.65 768.28 667.27
  A 1.38 1.16 -9.1 0 1 768.53 666.98
  L 780.28 656.46
  A 2.83 2.42 4.5 0 1 780.72 656.14
  Q 785.35 653.37 788.67 650.83
  Q 793.38 647.21 795.79 646.35
  Q 800.20 644.78 804.01 644.15
  C 809.36 643.27 816.67 644.47 818.00 650.46
  C 818.38 652.19 818.84 653.64 819.06 655.13
  A 2.41 2.33 53.2 0 1 818.91 656.32
  Q 813.06 671.15 799.29 679.44
  A 8.03 7.59 -78.6 0 0 798.30 680.14
  Q 793.54 684.19 788.25 686.26
  C 786.77 686.84 785.74 687.91 784.81 688.89
  A 0.33 0.32 23.4 0 0 785.03 689.44
  Q 794.48 690.03 801.95 696.42
  A 0.85 0.84 -38.7 0 0 802.88 696.52
  L 806.87 694.48
  A 2.08 1.87 -74.6 0 0 807.12 694.32
  L 826.43 680.25
  A 1.39 1.29 -67.7 0 1 826.86 680.05
  Q 827.72 679.84 828.75 678.75
  Q 831.83 675.49 839.36 668.13
  A 1.92 1.87 76.6 0 0 839.86 667.29
  Q 842.39 657.91 847.22 650.71
  Q 848.83 648.31 856.05 638.55
  Q 856.09 638.51 856.13 638.47
  L 860.44 634.20
  A 1.43 1.38 7.5 0 1 860.78 633.95
  Q 864.78 631.71 867.56 634.99
  Q 868.20 635.76 868.82 638.63
  A 1.12 1.11 58.0 0 1 868.61 639.55
  C 865.47 643.53 862.63 646.47 860.32 650.56
  Q 855.20 659.61 853.94 662.45
  Q 851.37 668.29 849.63 674.88
  Q 847.84 681.69 851.45 687.35
  A 1.45 1.42 78.1 0 0 852.39 687.98
  L 856.80 688.74
  A 1.18 1.04 -43.7 0 0 857.31 688.72
  Q 861.61 687.58 866.19 685.17
  Q 868.97 683.72 871.06 681.30
  A 0.41 0.41 0.0 0 0 870.92 680.66
  L 868.09 679.32
  A 0.65 0.51 78.6 0 1 867.88 679.14
  Q 865.09 675.15 863.94 670.82
  Q 863.83 670.40 863.99 665.97
  A 3.58 3.58 0.0 0 1 864.27 664.74
  Q 868.03 655.96 876.95 653.07
  A 3.55 3.44 -55.4 0 1 877.85 652.89
  Q 883.36 652.54 886.29 656.88
  Q 888.89 660.75 887.28 665.03
  Q 884.60 672.16 880.69 676.92
  A 1.76 1.76 0.0 0 0 881.76 679.77
  C 886.98 680.64 894.28 678.31 898.56 676.80
  Q 900.33 676.17 902.06 674.41
  A 1.33 1.14 4.4 0 1 902.36 674.19
  L 906.37 672.04
  A 1.75 1.74 -51.0 0 1 907.64 671.90
  Q 909.78 672.50 910.95 673.44
  A 1.77 1.76 -58.9 0 1 911.46 675.52
  Q 910.49 677.75 907.81 683.30
  A 1.83 1.63 -64.8 0 0 908.51 685.68
  Q 908.52 685.68 908.93 685.52
  A 0.68 0.68 0.0 0 1 909.69 685.72
  Q 910.92 687.18 912.53 686.86
  Q 919.55 685.48 926.37 681.35
  Q 933.47 677.04 940.34 671.61
  A 0.29 0.29 0.0 0 0 940.23 671.10
  Q 939.23 670.86 937.30 670.72
  C 933.18 670.42 930.35 667.88 927.49 665.10
  Q 920.27 658.05 926.04 648.02
  C 928.56 643.65 935.55 640.68 940.34 639.33
  A 5.58 5.39 33.9 0 1 941.57 639.11
  Q 944.62 638.89 945.72 638.34
  A 1.51 1.51 0.0 0 1 946.95 638.27
  C 948.79 638.98 950.17 637.77 951.67 638.23
  Q 952.06 638.35 956.47 638.82
  Q 963.23 639.55 966.57 645.43
  Q 967.10 646.36 967.16 650.46
  A 2.17 2.11 57.5 0 1 966.97 651.39
  Q 963.50 659.31 956.63 664.97
  A 0.33 0.33 0.0 0 0 956.84 665.55
  Q 958.86 665.54 959.96 664.47
  Q 964.51 660.03 969.70 656.37
  A 2.45 2.33 -65.4 0 1 970.75 655.95
  Q 973.00 655.60 974.64 656.07
  A 1.62 1.62 0.0 0 1 975.76 658.05
  Q 975.01 660.76 973.32 663.33
  Q 971.08 666.72 968.32 671.22
  Q 966.17 674.72 965.32 677.23
  Q 964.22 680.50 963.73 683.76
  Q 963.11 687.94 967.10 688.50
  A 5.83 2.76 14.9 0 0 967.89 688.59
  Q 968.15 688.60 971.67 688.05
  Q 973.70 687.73 975.23 687.16
  C 980.49 685.20 987.44 683.10 992.76 679.90
  Q 997.35 677.13 999.75 675.56
  C 1003.78 672.92 1006.99 671.49 1011.91 668.67
  C 1013.28 667.89 1014.81 667.59 1016.22 668.10
  A 0.57 0.57 0.0 0 1 1016.43 669.05
  Q 1013.82 671.58 1010.17 673.90
  Q 1009.80 674.14 998.10 681.33
  Q 991.82 685.19 984.00 688.93
  Q 973.55 693.93 962.73 695.69
  A 2.40 2.36 48.0 0 1 961.72 695.63
  C 957.43 694.44 953.01 691.61 953.02 686.77
  Q 953.05 678.00 958.99 667.93
  A 0.53 0.53 0.0 0 0 958.40 667.15
  L 954.96 668.01
  A 2.67 2.67 0.0 0 0 953.51 668.97
  Q 952.87 669.80 951.57 669.97
  A 2.81 2.66 -62.1 0 0 950.62 670.29
  C 946.70 672.50 943.25 675.67 939.77 677.81
  Q 935.36 680.52 929.81 684.57
  Q 928.66 685.41 925.46 687.11
  Q 921.19 689.38 921.00 689.46
  C 917.20 691.08 911.44 693.19 906.85 692.78
  Q 902.62 692.41 899.66 690.91
  A 4.93 4.04 14.9 0 1 896.99 687.20
  Q 896.91 685.22 895.94 682.82
  A 0.65 0.65 0.0 0 0 895.20 682.44
  L 884.75 684.81
  A 1.65 1.65 0.0 0 1 883.99 684.81
  L 876.15 682.94
  A 2.65 2.63 -64.6 0 0 873.45 683.91
  C 868.23 690.74 859.09 695.36 850.51 695.27
  Q 842.09 695.19 838.31 686.76
  A 3.05 2.97 -58.2 0 1 838.05 685.58
  L 837.84 675.24
  A 0.19 0.19 0.0 0 0 837.51 675.12
  Q 833.61 679.45 830.16 682.70
  Q 827.26 685.44 821.74 689.06
  Q 814.25 693.97 804.77 699.82
  A 1.46 1.46 0.0 0 0 804.21 701.68
  Q 805.74 704.96 804.42 707.26
  A 2.14 2.10 -29.9 0 0 804.13 708.29
  C 803.95 719.97 798.74 732.70 793.80 743.70
  Q 791.70 748.38 789.41 752.21
  Q 785.27 759.14 784.69 760.60
  A 1.52 1.46 83.7 0 1 784.19 761.25
  Q 783.45 761.78 782.80 762.79
  Q 779.16 768.41 773.90 775.15
  C 772.12 777.44 770.30 780.89 768.23 783.18
  C 763.08 788.84 756.92 797.25 751.29 803.00
  Q 744.01 810.41 739.72 814.67
  A 5.46 5.41 -83.1 0 1 738.85 815.36
  Q 736.95 816.55 735.47 818.16
  C 733.37 820.44 730.86 821.96 728.76 823.80
  Q 726.50 825.78 723.59 827.41
  Q 722.31 828.12 718.70 830.54
  A 3.74 3.66 -70.4 0 1 717.78 830.99
  Q 710.05 833.56 708.56 833.80
  Q 703.94 834.55 699.57 832.67
  A 1.54 1.18 -7.4 0 1 699.33 832.53
  L 695.31 829.47
  A 1.16 1.15 -86.0 0 1 694.99 829.10
  Q 693.09 825.55 693.10 821.17
  A 2.13 2.13 0.0 0 1 693.35 820.21
  Q 693.42 820.08 693.53 819.94
  A 0.56 0.53 -31.4 0 0 693.63 819.57
  Q 693.52 818.37 694.80 814.05
  Q 697.93 803.50 703.08 794.81
  Q 705.27 791.12 715.98 775.84
  Q 718.53 772.21 721.56 768.63
  C 723.94 765.81 726.66 761.99 729.25 759.20
  Q 736.16 751.75 741.32 745.98
  Q 750.23 735.99 755.14 731.48
  Q 760.39 726.65 770.04 718.03
  Q 772.14 716.15 774.65 714.60
  Q 776.90 713.21 779.33 711.30
  C 783.64 707.90 788.61 704.89 792.94 701.37
  A 1.39 1.39 0.0 0 0 792.98 699.25
  Q 790.59 697.16 790.18 696.60
  C 788.44 694.25 785.10 694.69 782.49 694.20
  Q 778.07 693.38 777.75 693.30
  A 2.46 2.45 47.6 0 0 776.70 693.25
  L 767.74 694.84
  A 1.40 1.40 0.0 0 1 766.10 693.63
  Q 765.79 691.16 768.72 689.92
  C 776.62 686.55 783.95 683.31 790.10 678.23
  Q 795.80 673.53 797.53 671.96
  C 801.02 668.80 805.10 663.95 806.47 659.29
  Q 807.48 655.81 805.15 651.76
  A 1.42 1.41 78.8 0 0 804.10 651.05
  C 799.66 650.52 796.40 651.83 792.70 654.46
  Q 788.17 657.68 782.37 661.55
  A 8.54 8.45 6.0 0 0 781.16 662.52
  Q 778.33 665.31 775.81 667.30
  C 770.52 671.45 765.67 675.86 759.68 679.27
  A 4.91 4.16 4.7 0 0 758.91 679.82
  Q 755.29 683.02 752.91 684.14
  C 750.26 685.39 746.65 687.70 744.54 688.80
  Q 733.95 694.30 724.66 700.92
  Q 722.06 702.78 719.76 706.50
  Q 716.34 712.03 715.72 713.21
  Q 702.89 737.45 687.42 769.19
  Q 679.11 786.24 672.85 795.89
  Q 664.82 808.28 655.49 818.24
  Q 650.80 823.24 644.16 827.95
  Q 641.31 829.98 638.81 830.74
  Q 633.83 832.25 632.77 832.17
  Q 629.94 831.96 628.46 831.93
  A 1.83 1.78 -27.3 0 1 627.51 831.64
  C 626.08 830.72 622.86 829.87 621.54 828.10
  C 618.40 823.89 618.65 818.37 618.82 812.61
  Q 618.93 808.92 620.21 804.37
  Q 622.41 796.51 622.57 796.10
  Q 625.39 788.98 631.15 778.25
  Q 635.26 770.59 642.28 761.92
  Q 653.21 748.44 663.45 739.21
  Q 677.05 726.94 685.21 720.98
  Q 696.21 712.94 701.22 709.61
  C 703.97 707.78 706.04 705.29 709.51 703.49
  A 5.69 5.67 -1.2 0 0 711.99 700.91
  L 729.91 663.19
  A 0.28 0.28 0.0 0 0 729.47 662.87
  Q 724.99 667.13 718.90 673.32
  Q 716.23 676.04 714.04 677.61
  C 710.02 680.48 707.52 683.29 703.42 685.61
  Q 698.48 688.38 697.46 688.91
  Q 690.19 692.64 683.17 689.58
  Q 681.58 688.88 680.90 686.85
  Q 680.26 684.93 680.10 683.32
  Q 679.66 678.77 681.65 675.72
  A 3.61 3.56 -28.2 0 0 682.22 673.89
  Q 682.24 673.22 682.87 672.49
  A 0.26 0.26 0.0 0 0 682.61 672.07
  Q 681.73 672.29 680.99 673.01
  Q 677.81 676.15 674.92 677.65
  C 669.91 680.23 665.77 683.27 661.00 685.27
  Q 655.60 687.53 648.18 690.33
  Q 646.37 691.01 644.20 691.33
  Q 643.14 691.49 640.60 692.39
  A 1.19 0.89 -53.1 0 1 640.36 692.46
  L 632.49 693.86
  A 1.03 0.47 20.6 0 1 632.34 693.87
  Q 622.31 694.02 615.17 694.43
  C 609.44 694.76 604.28 694.26 598.98 693.80
  A 1.05 1.05 0.0 0 1 598.58 693.70
  L 592.75 691.06
  A 1.71 1.71 0.0 0 0 590.60 691.72
  Q 588.41 695.25 585.51 701.13
  C 584.61 702.95 583.31 704.71 582.32 706.56
  Q 575.93 718.53 569.64 729.92
  Q 558.57 749.94 553.69 759.91
  Q 542.10 783.57 536.20 795.48
  Q 534.38 799.16 533.00 802.96
  C 531.42 807.30 529.58 811.46 525.86 814.48
  A 1.96 1.90 -66.6 0 1 524.87 814.89
  C 521.61 815.21 518.76 814.97 516.73 812.36
  A 1.09 1.09 0.0 0 1 516.57 811.33
  Q 518.70 805.32 521.50 800.43
  C 525.22 793.92 527.92 788.29 534.51 775.81
  Q 538.61 768.06 543.39 759.95
  C 548.09 751.97 553.22 741.70 558.41 732.98
  Q 563.81 723.91 564.77 722.02
  Q 570.11 711.47 578.24 697.22
  C 581.03 692.33 584.00 688.13 586.01 683.22
  Z
  M 518.60 679.83
  Q 519.11 680.51 518.00 681.68
  A 0.59 0.58 -72.1 0 0 518.50 682.66
  L 523.11 682.07
  A 3.95 3.86 24.7 0 0 524.68 681.51
  C 528.99 678.85 533.93 677.12 537.77 674.36
  C 540.98 672.05 544.54 670.43 547.79 667.52
  Q 552.56 663.24 559.17 657.66
  Q 563.03 654.40 565.31 651.81
  Q 570.56 645.83 570.85 645.35
  Q 572.82 642.05 573.27 641.29
  A 0.92 0.92 0.0 0 0 572.38 639.91
  Q 564.26 640.72 557.07 643.58
  Q 548.67 646.93 541.42 651.67
  Q 534.71 656.06 525.29 666.54
  Q 524.99 666.88 520.45 673.90
  A 2.87 2.68 72.8 0 0 520.16 674.50
  L 518.52 679.36
  A 0.50 0.49 -55.3 0 0 518.60 679.83
  Z
  M 935.53 665.87
  Q 935.69 665.88 935.79 665.53
  A 0.36 0.35 16.9 0 1 936.24 665.30
  L 943.27 667.54
  A 1.14 1.14 0.0 0 0 944.29 667.38
  L 951.94 661.80
  A 2.87 2.87 0.0 0 0 952.70 660.99
  Q 954.54 658.12 955.96 655.96
  Q 958.05 652.77 958.61 649.99
  Q 959.16 647.31 957.42 644.96
  Q 956.00 643.03 952.61 643.62
  Q 946.74 644.63 943.08 646.06
  Q 937.33 648.28 933.45 655.11
  A 1.15 1.14 58.0 0 0 933.30 655.78
  L 933.62 660.41
  A 1.34 1.30 -67.4 0 0 933.91 661.15
  Q 935.69 663.36 935.12 665.26
  A 0.47 0.47 0.0 0 0 935.53 665.87
  Z
  M 607.87 688.82
  Q 610.86 689.38 614.05 688.36
  Q 614.38 688.26 620.11 685.82
  Q 631.38 681.03 641.12 671.48
  C 645.20 667.48 648.76 661.63 650.83 656.49
  Q 652.38 652.64 649.07 649.57
  A 2.65 2.64 -24.3 0 0 647.20 648.87
  Q 640.95 649.06 638.16 650.05
  Q 636.70 650.56 630.83 653.21
  Q 626.98 654.95 623.92 657.26
  Q 613.39 665.24 606.09 671.53
  A 17.90 17.53 -2.4 0 0 603.51 674.28
  Q 601.78 676.59 597.24 681.97
  Q 595.55 683.98 595.92 686.15
  A 1.07 1.07 0.0 0 0 596.54 686.94
  Q 601.93 689.28 607.59 688.81
  A 1.34 1.29 46.0 0 1 607.87 688.82
  Z
  M 873.97 674.33
  A 0.87 0.87 0.0 0 0 875.50 674.78
  Q 878.66 671.06 880.84 667.23
  Q 882.15 664.92 882.05 660.93
  A 1.29 1.29 0.0 0 0 881.57 659.97
  Q 879.49 658.33 878.05 659.78
  Q 874.59 663.26 873.11 667.30
  C 872.17 669.87 873.67 671.94 873.97 674.33
  Z
  M 793.45 707.08
  L 791.61 708.54
  A 1.09 0.99 13.9 0 1 791.37 708.67
  Q 788.46 709.77 785.54 712.03
  Q 779.81 716.47 775.89 720.04
  C 768.90 726.40 761.47 732.39 755.26 739.51
  Q 749.53 746.09 749.52 746.10
  Q 746.68 748.86 743.90 752.81
  Q 742.95 754.16 734.94 763.92
  C 726.19 774.57 719.47 785.26 712.33 798.02
  Q 708.86 804.24 707.35 808.37
  Q 704.65 815.76 703.88 819.34
  Q 703.01 823.38 704.85 827.28
  A 2.40 2.39 64.3 0 0 708.07 828.41
  Q 710.55 827.19 716.80 823.45
  C 718.38 822.50 719.06 821.29 720.37 820.35
  Q 721.85 819.29 723.13 818.12
  Q 749.03 794.58 769.25 765.49
  Q 772.32 761.07 774.03 758.56
  Q 776.49 754.92 784.61 740.41
  Q 789.71 731.30 793.76 716.02
  A 5.10 5.05 -36.6 0 0 793.94 714.84
  Q 794.06 711.85 794.87 707.95
  A 0.89 0.88 -13.3 0 0 793.45 707.08
  Z
  M 706.76 713.10
  A 0.41 0.41 0.0 0 0 706.20 712.53
  Q 701.00 715.75 696.80 719.63
  C 696.34 720.06 695.68 720.23 695.16 720.65
  Q 683.55 730.00 676.94 735.66
  Q 673.97 738.20 660.83 751.55
  C 657.63 754.80 655.38 758.23 652.68 761.41
  Q 649.62 765.01 646.85 769.04
  Q 640.17 778.73 634.92 789.39
  Q 629.25 800.89 627.98 813.75
  Q 627.42 819.42 629.20 824.63
  A 2.99 2.98 76.1 0 0 632.49 826.62
  Q 634.39 826.32 636.56 825.35
  C 638.10 824.67 639.16 823.40 640.70 822.65
  A 4.78 4.57 7.3 0 0 642.11 821.61
  Q 655.52 807.22 658.18 803.19
  Q 666.83 790.12 669.13 785.66
  C 674.45 775.38 678.52 768.31 683.85 757.15
  Q 688.36 747.67 693.27 738.74
  Q 694.79 735.97 697.05 731.15
  C 698.85 727.32 701.82 722.92 703.88 718.37
  Q 705.05 715.81 706.76 713.10
  Z
  M 460.33 817.22
  Q 459.76 820.34 461.17 827.15
  A 2.15 2.10 -72.7 0 0 461.67 828.13
  Q 464.41 831.17 467.35 829.54
  Q 470.06 828.04 473.51 825.47
  Q 475.89 823.70 478.61 820.17
  Q 491.78 803.04 501.02 785.29
  Q 506.24 775.26 517.10 753.41
  C 518.05 751.49 518.90 749.03 519.90 747.08
  Q 528.02 731.18 535.28 715.58
  A 0.46 0.45 84.4 0 0 534.60 715.02
  Q 526.85 720.72 520.17 726.68
  Q 503.34 741.69 491.19 755.41
  C 479.64 768.45 470.30 782.45 464.39 798.69
  C 462.28 804.49 461.72 809.54 460.33 817.22
  Z"
/>
<path fill="#6b5238" fill-opacity="0.992" d="
  M 391.06 665.93
  A 0.42 0.41 -32.5 0 0 390.32 665.77
  Q 387.83 669.12 385.06 670.85
  A 2.22 2.22 0.0 0 0 384.36 671.55
  Q 383.02 673.65 381.08 675.33
  C 373.95 681.50 368.42 685.98 360.24 690.98
  Q 357.94 692.39 355.64 693.19
  C 351.42 694.66 348.19 696.34 344.70 693.30
  A 1.50 1.50 0.0 0 1 344.19 692.29
  Q 343.65 686.65 345.15 682.39
  Q 347.68 675.21 352.10 668.35
  Q 352.57 667.63 352.86 666.26
  A 2.36 2.15 68.9 0 1 353.14 665.54
  L 360.19 653.68
  A 1.71 1.57 69.2 0 0 360.39 653.18
  Q 360.94 650.83 360.62 648.95
  A 0.99 0.98 -4.9 0 0 359.65 648.14
  L 355.26 648.14
  A 1.17 1.17 0.0 0 1 354.58 646.02
  C 356.98 644.29 360.53 642.30 363.53 642.70
  C 373.58 644.04 369.65 653.20 367.28 659.16
  Q 366.34 661.54 364.51 664.79
  Q 360.93 671.16 358.66 676.81
  C 357.40 679.95 355.17 682.98 354.07 686.70
  A 0.34 0.34 0.0 0 0 354.49 687.12
  L 358.90 685.75
  A 3.53 3.43 17.9 0 0 359.93 685.24
  C 364.19 682.17 371.46 677.88 376.18 673.13
  C 379.80 669.50 384.39 665.04 386.84 663.00
  Q 389.44 660.84 395.40 654.26
  Q 399.74 649.49 404.13 645.67
  C 406.83 643.32 410.89 645.60 412.71 647.85
  A 1.27 1.26 34.4 0 1 412.93 649.00
  C 411.23 654.53 408.12 659.55 404.72 665.21
  Q 402.95 668.16 401.67 672.33
  A 5.05 4.86 67.1 0 1 401.36 673.14
  Q 398.89 678.29 398.89 683.77
  Q 398.88 686.21 400.91 687.66
  A 0.60 0.54 -16.7 0 0 401.14 687.77
  L 405.02 688.69
  A 2.14 2.14 0.0 0 0 406.02 688.69
  Q 412.73 687.09 414.06 686.51
  Q 427.37 680.70 442.02 669.02
  Q 443.51 667.84 445.31 667.66
  A 0.70 0.70 0.0 0 1 446.08 668.40
  Q 445.96 670.12 444.80 671.08
  Q 441.67 673.66 438.18 676.94
  Q 435.18 679.75 431.21 682.36
  Q 426.17 685.67 420.83 688.81
  Q 414.89 692.29 408.01 694.55
  Q 400.11 697.14 393.94 695.32
  C 390.72 694.38 389.17 692.81 387.81 689.67
  Q 386.63 686.95 386.55 684.75
  Q 386.27 676.83 390.75 668.03
  Q 391.27 667.01 391.06 665.93
  Z"
/>
<path fill="#6b5238" fill-opacity="0.992" d="
  M 1037.67 678.21
  Q 1039.96 678.93 1042.42 681.45
  C 1045.55 684.67 1045.34 688.23 1042.22 691.23
  Q 1041.92 691.52 1037.81 693.21
  C 1033.47 694.99 1028.57 694.49 1027.14 689.44
  Q 1026.77 688.14 1028.00 684.16
  A 3.11 2.98 74.2 0 1 1028.51 683.20
  L 1031.85 679.00
  A 1.85 1.83 -74.3 0 1 1033.03 678.33
  Q 1036.56 677.85 1037.67 678.21
  Z"
/>
</svg>
